<svg id="mermaid-1635138471812" width="100%" xmlns="http://www.w3.org/2000/svg" xmlns:xlink="http://www.w3.org/1999/xlink" height="152" style="max-width: 644px;" viewBox="-20 -20 644 152"><style>#mermaid-1635138471812{font-family:"trebuchet ms",verdana,arial,sans-serif;font-size:16px;fill:#333;}#mermaid-1635138471812 .error-icon{fill:#552222;}#mermaid-1635138471812 .error-text{fill:#552222;stroke:#552222;}#mermaid-1635138471812 .edge-thickness-normal{stroke-width:2px;}#mermaid-1635138471812 .edge-thickness-thick{stroke-width:3.5px;}#mermaid-1635138471812 .edge-pattern-solid{stroke-dasharray:0;}#mermaid-1635138471812 .edge-pattern-dashed{stroke-dasharray:3;}#mermaid-1635138471812 .edge-pattern-dotted{stroke-dasharray:2;}#mermaid-1635138471812 .marker{fill:#333333;stroke:#333333;}#mermaid-1635138471812 .marker.cross{stroke:#333333;}#mermaid-1635138471812 svg{font-family:"trebuchet ms",verdana,arial,sans-serif;font-size:16px;}#mermaid-1635138471812 g.classGroup text{fill:#9370DB;fill:#131300;stroke:none;font-family:"trebuchet ms",verdana,arial,sans-serif;font-size:10px;}#mermaid-1635138471812 g.classGroup text .title{font-weight:bolder;}#mermaid-1635138471812 .classTitle{font-weight:bolder;}#mermaid-1635138471812 .node rect,#mermaid-1635138471812 .node circle,#mermaid-1635138471812 .node ellipse,#mermaid-1635138471812 .node polygon,#mermaid-1635138471812 .node path{fill:#ECECFF;stroke:#9370DB;stroke-width:1px;}#mermaid-1635138471812 .divider{stroke:#9370DB;stroke:1;}#mermaid-1635138471812 g.clickable{cursor:pointer;}#mermaid-1635138471812 g.classGroup rect{fill:#ECECFF;stroke:#9370DB;}#mermaid-1635138471812 g.classGroup line{stroke:#9370DB;stroke-width:1;}#mermaid-1635138471812 .classLabel .box{stroke:none;stroke-width:0;fill:#ECECFF;opacity:0.5;}#mermaid-1635138471812 .classLabel .label{fill:#9370DB;font-size:10px;}#mermaid-1635138471812 .relation{stroke:#333333;stroke-width:1;fill:none;}#mermaid-1635138471812 .dashed-line{stroke-dasharray:3;}#mermaid-1635138471812 #compositionStart,#mermaid-1635138471812 .composition{fill:#333333 !important;stroke:#333333 !important;stroke-width:1;}#mermaid-1635138471812 #compositionEnd,#mermaid-1635138471812 .composition{fill:#333333 !important;stroke:#333333 !important;stroke-width:1;}#mermaid-1635138471812 #dependencyStart,#mermaid-1635138471812 .dependency{fill:#333333 !important;stroke:#333333 !important;stroke-width:1;}#mermaid-1635138471812 #dependencyStart,#mermaid-1635138471812 .dependency{fill:#333333 !important;stroke:#333333 !important;stroke-width:1;}#mermaid-1635138471812 #extensionStart,#mermaid-1635138471812 .extension{fill:#333333 !important;stroke:#333333 !important;stroke-width:1;}#mermaid-1635138471812 #extensionEnd,#mermaid-1635138471812 .extension{fill:#333333 !important;stroke:#333333 !important;stroke-width:1;}#mermaid-1635138471812 #aggregationStart,#mermaid-1635138471812 .aggregation{fill:#ECECFF !important;stroke:#333333 !important;stroke-width:1;}#mermaid-1635138471812 #aggregationEnd,#mermaid-1635138471812 .aggregation{fill:#ECECFF !important;stroke:#333333 !important;stroke-width:1;}#mermaid-1635138471812 .edgeTerminals{font-size:11px;}#mermaid-1635138471812:root{--mermaid-font-family:"trebuchet ms",verdana,arial,sans-serif;}#mermaid-1635138471812 class{fill:apa;}</style><g></g><defs><marker id="extensionStart" class="extension" refX="0" refY="7" markerWidth="190" markerHeight="240" orient="auto"><path d="M 1,7 L18,13 V 1 Z"></path></marker></defs><defs><marker id="extensionEnd" refX="19" refY="7" markerWidth="20" markerHeight="28" orient="auto"><path d="M 1,1 V 13 L18,7 Z"></path></marker></defs><defs><marker id="compositionStart" class="extension" refX="0" refY="7" markerWidth="190" markerHeight="240" orient="auto"><path d="M 18,7 L9,13 L1,7 L9,1 Z"></path></marker></defs><defs><marker id="compositionEnd" refX="19" refY="7" markerWidth="20" markerHeight="28" orient="auto"><path d="M 18,7 L9,13 L1,7 L9,1 Z"></path></marker></defs><defs><marker id="aggregationStart" class="extension" refX="0" refY="7" markerWidth="190" markerHeight="240" orient="auto"><path d="M 18,7 L9,13 L1,7 L9,1 Z"></path></marker></defs><defs><marker id="aggregationEnd" refX="19" refY="7" markerWidth="20" markerHeight="28" orient="auto"><path d="M 18,7 L9,13 L1,7 L9,1 Z"></path></marker></defs><defs><marker id="dependencyStart" class="extension" refX="0" refY="7" markerWidth="190" markerHeight="240" orient="auto"><path d="M 5,7 L9,13 L1,7 L9,1 Z"></path></marker></defs><defs><marker id="dependencyEnd" refX="19" refY="7" markerWidth="20" markerHeight="28" orient="auto"><path d="M 18,7 L9,13 L14,7 L9,1 Z"></path></marker></defs><g id="classid-CheckParsingService-0" class="classGroup" transform="translate(249.5,81 )"><rect x="0" y="0" width="117" height="31" class=" "></rect><text y="15" x="0"><tspan class="title" x="5">CheckParsingService</tspan></text><line x1="0" y1="22" y2="22" x2="117"></line><text x="5" y="32" fill="white" class="classText"></text><line x1="0" y1="27" y2="27" x2="117"></line><text x="5" y="42" fill="white" class="classText"></text></g><g id="classid-billchecker_CheckParsingService-1" class="classGroup" transform="translate(0,0 )"><rect x="0" y="0" width="178" height="31" class=" "></rect><text y="15" x="0"><tspan class="title" x="5">billchecker_CheckParsingService</tspan></text><line x1="0" y1="22" y2="22" x2="178"></line><text x="5" y="32" fill="white" class="classText"></text><line x1="0" y1="27" y2="27" x2="178"></line><text x="5" y="42" fill="white" class="classText"></text></g><g id="classid-nalogru_CheckParsingService-2" class="classGroup" transform="translate(228,0 )"><rect x="0" y="0" width="160" height="31" class=" "></rect><text y="15" x="0"><tspan class="title" x="5">nalogru_CheckParsingService</tspan></text><line x1="0" y1="22" y2="22" x2="160"></line><text x="5" y="32" fill="white" class="classText"></text><line x1="0" y1="27" y2="27" x2="160"></line><text x="5" y="42" fill="white" class="classText"></text></g><g id="classid-nalogru2_CheckParsingService-3" class="classGroup" transform="translate(438,0 )"><rect x="0" y="0" width="166" height="31" class=" "></rect><text y="15" x="0"><tspan class="title" x="5">nalogru2_CheckParsingService</tspan></text><line x1="0" y1="22" y2="22" x2="166"></line><text x="5" y="32" fill="white" class="classText"></text><line x1="0" y1="27" y2="27" x2="166"></line><text x="5" y="42" fill="white" class="classText"></text></g><path d="M89,31L89,35.166666666666664C89,39.333333333333336,89,47.666666666666664,115.75,56.780251141552505C142.5,65.89383561643835,196,75.78767123287672,222.75,80.73458904109589L249.5,85.68150684931507" id="edge0" class="relation" marker-end="url(#dependencyEnd)"></path><path d="M308,31L308,35.166666666666664C308,39.333333333333336,308,47.666666666666664,308,56C308,64.33333333333333,308,72.66666666666667,308,76.83333333333333L308,81" id="edge1" class="relation" marker-end="url(#dependencyEnd)"></path><path d="M521,31L521,35.166666666666664C521,39.333333333333336,521,47.666666666666664,495.25,56.72946009389671C469.5,65.79225352112677,418,75.58450704225352,392.25,80.48063380281691L366.5,85.37676056338029" id="edge2" class="relation" marker-end="url(#dependencyEnd)"></path></svg>